<mxfile host="app.diagrams.net" modified="2023-10-22T08:13:58.242Z" agent="Mozilla/5.0 (Windows NT 10.0; Win64; x64) AppleWebKit/537.36 (KHTML, like Gecko) Chrome/118.0.0.0 Safari/537.36" version="22.0.6" etag="h_hq0Ld9T8YiZIRpAy4Y" type="github">
  <diagram name="Pagina-1" id="JseofYyJef_rZUHDJJqx">
    <mxGraphModel>
      <root>
        <mxCell id="0" />
        <mxCell id="1" parent="0" />
      </root>
    </mxGraphModel>
  </diagram>
</mxfile>
